<svg width="15" height="17" viewBox="0 0 15 17" fill="none" xmlns="http://www.w3.org/2000/svg">
    <path
        d="M8 13H11.5C11.6326 13 11.7598 12.9473 11.8536 12.8536C11.9473 12.7598 12 12.6326 12 12.5V11H8V13ZM8.121 14L9.561 15.44C9.724 15.603 9.842 15.795 9.915 16H13.5C13.8978 16 14.2794 15.842 14.5607 15.5607C14.842 15.2794 15 14.8978 15 14.5V6H10.5C10.1022 6 9.72064 5.84196 9.43934 5.56066C9.15803 5.27936 9 4.89782 9 4.5V0H4.5C4.10217 0 3.72064 0.158035 3.43934 0.43934C3.15803 0.720644 3 1.10218 3 1.5V7.027C3.164 7.009 3.33067 7 3.5 7C4.195 7 4.853 7.157 5.44 7.439C5.7212 7.15798 6.10245 7.00008 6.5 7H11.5C11.8978 7 12.2794 7.15804 12.5607 7.43934C12.842 7.72064 13 8.10218 13 8.5V12.5C13 12.8978 12.842 13.2794 12.5607 13.5607C12.2794 13.842 11.8978 14 11.5 14H8.121ZM12 10V8.5C12 8.36739 11.9473 8.24021 11.8536 8.14645C11.7598 8.05268 11.6326 8 11.5 8H8V10H12ZM10 0.25V4.5C10 4.63261 10.0527 4.75979 10.1464 4.85355C10.2402 4.94732 10.3674 5 10.5 5H14.75L10 0.25ZM6.303 13.596C6.83291 12.8873 7.07474 12.0043 6.9798 11.1245C6.88486 10.2447 6.46022 9.43357 5.79132 8.85428C5.12242 8.27498 4.25893 7.97055 3.37462 8.00225C2.49031 8.03395 1.65083 8.39943 1.02513 9.02513C0.399426 9.65083 0.0339482 10.4903 0.00224859 11.3746C-0.029451 12.2589 0.274981 13.1224 0.854276 13.7913C1.43357 14.4602 2.24473 14.8849 3.1245 14.9798C4.00427 15.0747 4.88734 14.8329 5.596 14.303L8.146 16.853C8.19242 16.8995 8.24755 16.9364 8.30822 16.9616C8.3689 16.9867 8.43395 16.9997 8.49965 16.9998C8.56534 16.9998 8.63041 16.9869 8.69112 16.9618C8.75183 16.9367 8.80701 16.8999 8.8535 16.8535C8.89999 16.8071 8.93688 16.752 8.96206 16.6913C8.98724 16.6306 9.00023 16.5656 9.00028 16.4999C9.00032 16.4342 8.98743 16.3691 8.96233 16.3084C8.93723 16.2477 8.90042 16.1925 8.854 16.146L6.303 13.596ZM6 11.5C6 12.163 5.73661 12.7989 5.26777 13.2678C4.79893 13.7366 4.16304 14 3.5 14C2.83696 14 2.20107 13.7366 1.73223 13.2678C1.26339 12.7989 0.999999 12.163 0.999999 11.5C0.999999 10.837 1.26339 10.2011 1.73223 9.73223C2.20107 9.26339 2.83696 9 3.5 9C4.16304 9 4.79893 9.26339 5.26777 9.73223C5.73661 10.2011 6 10.837 6 11.5Z"
        fill="black" />
</svg>